<?xml version="1.0" encoding="UTF-8" standalone="no"?>
<!DOCTYPE svg PUBLIC "-//W3C//DTD SVG 1.1//EN" "http://www.w3.org/Graphics/SVG/1.1/DTD/svg11.dtd">
<svg width="100%" height="100%" viewBox="0 0 26.5 26.5" version="1.1" xmlns="http://www.w3.org/2000/svg" xmlns:xlink="http://www.w3.org/1999/xlink" xml:space="preserve" xmlns:serif="http://www.serif.com/" style="fill-rule:evenodd;clip-rule:evenodd;stroke-linejoin:round;stroke-miterlimit:2;">
    <g transform="matrix(0.962879,0,0,0.723324,1.42478,1.75894)">
        <rect id="Artboard1" x="-1.48" y="-2.432" width="28.068" height="37.356" style="fill:none;"/>
        <g id="Artboard11" serif:id="Artboard1">
            <g transform="matrix(1.03855,0,0,1.38251,-1.73054,-0.813184)">
                <path d="M15.044,0.63C9.725,0.63 5.242,4.2 3.852,9.073L3.851,9.072L0.923,16.208C0.793,16.549 1.044,16.914 1.409,16.914L4.478,17.157C6.325,21.145 10.361,23.913 15.044,23.913C21.474,23.913 26.686,18.701 26.686,12.272C26.686,5.842 21.474,0.63 15.044,0.63Z" style="fill:rgb(114,177,180);fill-rule:nonzero;"/>
            </g>
            <g transform="matrix(1.03855,0,0,1.38251,-1.73054,-0.813184)">
                <path d="M22.103,12.163C21.63,14.121 19.922,15.517 17.774,15.971L17.778,15.972L12.461,17.124C12.08,17.206 11.744,16.862 11.835,16.483L12.185,15.036C9.895,13.692 8.603,11.32 9.155,9.036C9.862,6.106 13.334,4.431 16.91,5.294C20.485,6.158 22.811,9.233 22.103,12.163Z" style="fill:white;fill-rule:nonzero;"/>
            </g>
        </g>
    </g>
</svg>
